<mxfile host="app.diagrams.net" modified="2023-11-20T19:25:58.098Z" agent="Mozilla/5.0 (Windows NT 10.0; Win64; x64) AppleWebKit/537.36 (KHTML, like Gecko) Chrome/119.0.0.0 Safari/537.36" etag="M5e23GXvf5x_Qb92TL9m" version="22.1.3" type="github">
  <diagram id="C5RBs43oDa-KdzZeNtuy" name="Page-1">
    <mxGraphModel dx="1434" dy="758" grid="1" gridSize="10" guides="1" tooltips="1" connect="1" arrows="1" fold="1" page="1" pageScale="1" pageWidth="827" pageHeight="1169" math="0" shadow="0">
      <root>
        <mxCell id="WIyWlLk6GJQsqaUBKTNV-0" />
        <mxCell id="WIyWlLk6GJQsqaUBKTNV-1" parent="WIyWlLk6GJQsqaUBKTNV-0" />
        <mxCell id="oKcvwv5AO4V_xQ8CeAnP-2" value="" style="edgeStyle=orthogonalEdgeStyle;rounded=0;orthogonalLoop=1;jettySize=auto;html=1;" edge="1" parent="WIyWlLk6GJQsqaUBKTNV-1" source="oKcvwv5AO4V_xQ8CeAnP-0">
          <mxGeometry relative="1" as="geometry">
            <mxPoint x="410" y="200" as="targetPoint" />
          </mxGeometry>
        </mxCell>
        <mxCell id="oKcvwv5AO4V_xQ8CeAnP-0" value="Start" style="rounded=1;whiteSpace=wrap;html=1;" vertex="1" parent="WIyWlLk6GJQsqaUBKTNV-1">
          <mxGeometry x="350" y="90" width="120" height="60" as="geometry" />
        </mxCell>
        <mxCell id="oKcvwv5AO4V_xQ8CeAnP-20" value="" style="edgeStyle=orthogonalEdgeStyle;rounded=0;orthogonalLoop=1;jettySize=auto;html=1;" edge="1" parent="WIyWlLk6GJQsqaUBKTNV-1" source="oKcvwv5AO4V_xQ8CeAnP-9" target="oKcvwv5AO4V_xQ8CeAnP-19">
          <mxGeometry relative="1" as="geometry" />
        </mxCell>
        <mxCell id="oKcvwv5AO4V_xQ8CeAnP-22" value="" style="edgeStyle=orthogonalEdgeStyle;rounded=0;orthogonalLoop=1;jettySize=auto;html=1;" edge="1" parent="WIyWlLk6GJQsqaUBKTNV-1" source="oKcvwv5AO4V_xQ8CeAnP-9" target="oKcvwv5AO4V_xQ8CeAnP-21">
          <mxGeometry relative="1" as="geometry" />
        </mxCell>
        <mxCell id="oKcvwv5AO4V_xQ8CeAnP-9" value="answer % 2 == 0" style="rhombus;whiteSpace=wrap;html=1;rounded=1;" vertex="1" parent="WIyWlLk6GJQsqaUBKTNV-1">
          <mxGeometry x="341" y="390" width="129" height="81" as="geometry" />
        </mxCell>
        <mxCell id="oKcvwv5AO4V_xQ8CeAnP-15" value="" style="edgeStyle=orthogonalEdgeStyle;rounded=0;orthogonalLoop=1;jettySize=auto;html=1;" edge="1" parent="WIyWlLk6GJQsqaUBKTNV-1" source="oKcvwv5AO4V_xQ8CeAnP-11" target="oKcvwv5AO4V_xQ8CeAnP-12">
          <mxGeometry relative="1" as="geometry" />
        </mxCell>
        <mxCell id="oKcvwv5AO4V_xQ8CeAnP-11" value="Num1, Num2" style="shape=card;whiteSpace=wrap;html=1;" vertex="1" parent="WIyWlLk6GJQsqaUBKTNV-1">
          <mxGeometry x="340" y="200" width="130" height="60" as="geometry" />
        </mxCell>
        <mxCell id="oKcvwv5AO4V_xQ8CeAnP-16" value="" style="edgeStyle=orthogonalEdgeStyle;rounded=0;orthogonalLoop=1;jettySize=auto;html=1;" edge="1" parent="WIyWlLk6GJQsqaUBKTNV-1" source="oKcvwv5AO4V_xQ8CeAnP-12">
          <mxGeometry relative="1" as="geometry">
            <mxPoint x="404.5" y="390" as="targetPoint" />
          </mxGeometry>
        </mxCell>
        <mxCell id="oKcvwv5AO4V_xQ8CeAnP-12" value="Num1 ++&lt;br&gt;Num2--&lt;br&gt;Answer = Num1*Num2" style="whiteSpace=wrap;html=1;rounded=1;" vertex="1" parent="WIyWlLk6GJQsqaUBKTNV-1">
          <mxGeometry x="327" y="290" width="155" height="70" as="geometry" />
        </mxCell>
        <mxCell id="oKcvwv5AO4V_xQ8CeAnP-19" value="zugy" style="shape=document;whiteSpace=wrap;html=1;boundedLbl=1;" vertex="1" parent="WIyWlLk6GJQsqaUBKTNV-1">
          <mxGeometry x="345" y="500" width="120" height="80" as="geometry" />
        </mxCell>
        <mxCell id="oKcvwv5AO4V_xQ8CeAnP-21" value="ai zugy" style="shape=document;whiteSpace=wrap;html=1;boundedLbl=1;rounded=1;" vertex="1" parent="WIyWlLk6GJQsqaUBKTNV-1">
          <mxGeometry x="554.5" y="390.5" width="120" height="80" as="geometry" />
        </mxCell>
      </root>
    </mxGraphModel>
  </diagram>
</mxfile>
